# xmcd
#
# Track frame offsets:
#   150
#   17150
#   40443
#   60839
#   83580
#   105057
#   125696
#   143404
#   156034
#   171908
#   192805
#   210442
#   233753
#   254149
#   281063
#   300861
#   323032
#
# Disc length: 4536 seconds
#
# Revision: 0
# Processed by: cddbd v1.5.2PL0 Copyright (c) Steve Scherf et al.
# Submitted via: GXTranscoder 2.0.1939
#
DISCID=d511b611
DTITLE=mix - mix
DYEAR=1900
DGENRE=domaca
TTITLE0=bbbbbbbbbbb
TTITLE1=bajaga - Plavi Safir
TTITLE2=sddsd
TTITLE3=Ti znas
TTITLE4=fffffffffffff
TTITLE5=ggggggggggggggg
TTITLE6=fffffffffffffffffffffff
TTITLE7=ssssssssssssss
TTITLE8=vvvvvvvvv
TTITLE9=Kemal and O.Dragojevic - Nije htjela
TTITLE10=sdfgs
TTITLE11=s tobom ja mogu sve
TTITLE12=Indexi - Zivot je jedan ona bacila
TTITLE13=neznam naziv
TTITLE14=ne znam naslov pesme
TTITLE15=opet ne znam
TTITLE16=ne znam bre
EXTD=
EXTT0=
EXTT1=
EXTT2=
EXTT3=
EXTT4=
EXTT5=
EXTT6=
EXTT7=
EXTT8=
EXTT9=
EXTT10=
EXTT11=
EXTT12=
EXTT13=
EXTT14=
EXTT15=
EXTT16=
PLAYORDER=
